<mxfile host="app.diagrams.net" modified="2024-03-13T01:03:51.008Z" agent="Mozilla/5.0 (Windows NT 10.0; Win64; x64) AppleWebKit/537.36 (KHTML, like Gecko) Chrome/122.0.0.0 Safari/537.36" etag="atUaLwquqTjlVrEhTGpV" version="24.0.5" type="github">
  <diagram name="Página-1" id="11imAW-jSskHxmemjPuw">
    <mxGraphModel dx="280" dy="770" grid="1" gridSize="10" guides="1" tooltips="1" connect="1" arrows="1" fold="1" page="1" pageScale="1" pageWidth="827" pageHeight="1169" math="0" shadow="0">
      <root>
        <mxCell id="0" />
        <mxCell id="1" parent="0" />
        <mxCell id="LbJM9FnIJIDi3qJCjKD5-4" value="" style="edgeStyle=orthogonalEdgeStyle;rounded=0;orthogonalLoop=1;jettySize=auto;html=1;" edge="1" parent="1" source="LbJM9FnIJIDi3qJCjKD5-1" target="LbJM9FnIJIDi3qJCjKD5-3">
          <mxGeometry relative="1" as="geometry" />
        </mxCell>
        <mxCell id="LbJM9FnIJIDi3qJCjKD5-1" value="Inicio" style="ellipse;whiteSpace=wrap;html=1;" vertex="1" parent="1">
          <mxGeometry x="300" y="60" width="120" height="80" as="geometry" />
        </mxCell>
        <mxCell id="LbJM9FnIJIDi3qJCjKD5-6" value="" style="edgeStyle=orthogonalEdgeStyle;rounded=0;orthogonalLoop=1;jettySize=auto;html=1;" edge="1" parent="1" source="LbJM9FnIJIDi3qJCjKD5-3" target="LbJM9FnIJIDi3qJCjKD5-5">
          <mxGeometry relative="1" as="geometry" />
        </mxCell>
        <mxCell id="LbJM9FnIJIDi3qJCjKD5-3" value="Input A" style="shape=parallelogram;perimeter=parallelogramPerimeter;whiteSpace=wrap;html=1;fixedSize=1;" vertex="1" parent="1">
          <mxGeometry x="260" y="220" width="200" height="60" as="geometry" />
        </mxCell>
        <mxCell id="LbJM9FnIJIDi3qJCjKD5-8" value="" style="edgeStyle=orthogonalEdgeStyle;rounded=0;orthogonalLoop=1;jettySize=auto;html=1;" edge="1" parent="1" source="LbJM9FnIJIDi3qJCjKD5-5" target="LbJM9FnIJIDi3qJCjKD5-7">
          <mxGeometry relative="1" as="geometry" />
        </mxCell>
        <mxCell id="LbJM9FnIJIDi3qJCjKD5-5" value="R = A % 2&amp;nbsp;" style="whiteSpace=wrap;html=1;" vertex="1" parent="1">
          <mxGeometry x="300" y="320" width="120" height="60" as="geometry" />
        </mxCell>
        <mxCell id="LbJM9FnIJIDi3qJCjKD5-10" value="" style="edgeStyle=orthogonalEdgeStyle;rounded=0;orthogonalLoop=1;jettySize=auto;html=1;" edge="1" parent="1" source="LbJM9FnIJIDi3qJCjKD5-7" target="LbJM9FnIJIDi3qJCjKD5-9">
          <mxGeometry relative="1" as="geometry">
            <Array as="points">
              <mxPoint x="600" y="460" />
            </Array>
          </mxGeometry>
        </mxCell>
        <mxCell id="LbJM9FnIJIDi3qJCjKD5-11" value="Sí" style="edgeLabel;html=1;align=center;verticalAlign=middle;resizable=0;points=[];" vertex="1" connectable="0" parent="LbJM9FnIJIDi3qJCjKD5-10">
          <mxGeometry x="-0.0105" relative="1" as="geometry">
            <mxPoint as="offset" />
          </mxGeometry>
        </mxCell>
        <mxCell id="LbJM9FnIJIDi3qJCjKD5-13" value="" style="edgeStyle=orthogonalEdgeStyle;rounded=0;orthogonalLoop=1;jettySize=auto;html=1;" edge="1" parent="1" source="LbJM9FnIJIDi3qJCjKD5-7" target="LbJM9FnIJIDi3qJCjKD5-12">
          <mxGeometry relative="1" as="geometry">
            <Array as="points">
              <mxPoint x="140" y="460" />
            </Array>
          </mxGeometry>
        </mxCell>
        <mxCell id="LbJM9FnIJIDi3qJCjKD5-17" value="Sino" style="edgeLabel;html=1;align=center;verticalAlign=middle;resizable=0;points=[];" vertex="1" connectable="0" parent="LbJM9FnIJIDi3qJCjKD5-13">
          <mxGeometry x="-0.2216" relative="1" as="geometry">
            <mxPoint as="offset" />
          </mxGeometry>
        </mxCell>
        <mxCell id="LbJM9FnIJIDi3qJCjKD5-7" value="R = 0" style="rhombus;whiteSpace=wrap;html=1;" vertex="1" parent="1">
          <mxGeometry x="295" y="410" width="130" height="100" as="geometry" />
        </mxCell>
        <mxCell id="LbJM9FnIJIDi3qJCjKD5-16" style="edgeStyle=orthogonalEdgeStyle;rounded=0;orthogonalLoop=1;jettySize=auto;html=1;entryX=0.5;entryY=0;entryDx=0;entryDy=0;" edge="1" parent="1" source="LbJM9FnIJIDi3qJCjKD5-9" target="LbJM9FnIJIDi3qJCjKD5-14">
          <mxGeometry relative="1" as="geometry">
            <Array as="points">
              <mxPoint x="600" y="580" />
              <mxPoint x="360" y="580" />
            </Array>
          </mxGeometry>
        </mxCell>
        <mxCell id="LbJM9FnIJIDi3qJCjKD5-9" value="print(&quot;Su numero es par&quot;)" style="shape=parallelogram;perimeter=parallelogramPerimeter;whiteSpace=wrap;html=1;fixedSize=1;" vertex="1" parent="1">
          <mxGeometry x="510" y="490" width="180" height="60" as="geometry" />
        </mxCell>
        <mxCell id="LbJM9FnIJIDi3qJCjKD5-15" value="" style="edgeStyle=orthogonalEdgeStyle;rounded=0;orthogonalLoop=1;jettySize=auto;html=1;" edge="1" parent="1" source="LbJM9FnIJIDi3qJCjKD5-12" target="LbJM9FnIJIDi3qJCjKD5-14">
          <mxGeometry relative="1" as="geometry">
            <Array as="points">
              <mxPoint x="145" y="580" />
              <mxPoint x="360" y="580" />
            </Array>
          </mxGeometry>
        </mxCell>
        <mxCell id="LbJM9FnIJIDi3qJCjKD5-12" value="print(&quot;Su numero es impar&quot;)" style="shape=parallelogram;perimeter=parallelogramPerimeter;whiteSpace=wrap;html=1;fixedSize=1;" vertex="1" parent="1">
          <mxGeometry x="50" y="490" width="190" height="60" as="geometry" />
        </mxCell>
        <mxCell id="LbJM9FnIJIDi3qJCjKD5-14" value="Fin" style="ellipse;whiteSpace=wrap;html=1;" vertex="1" parent="1">
          <mxGeometry x="320" y="620" width="80" height="80" as="geometry" />
        </mxCell>
      </root>
    </mxGraphModel>
  </diagram>
</mxfile>
